<svg xmlns="http://www.w3.org/2000/svg" viewBox="0 0 512 512" role="img" aria-label="JG">
  <title>JG</title>
  <defs>
    <linearGradient id="g1" x1="0" y1="0" x2="1" y2="1">
      <stop offset="0" stop-color="#3fe6ff"/>
      <stop offset="1" stop-color="#1257ff"/>
    </linearGradient>
    <linearGradient id="g2" x1="0" y1="0" x2="0" y2="1">
      <stop offset="0" stop-color="#2ff0ff"/>
      <stop offset="1" stop-color="#1a7bff"/>
    </linearGradient>
    <linearGradient id="g3" x1="0" y1="0" x2="1" y2="0">
      <stop offset="0" stop-color="#1b4fe0"/>
      <stop offset="1" stop-color="#2fe0ff"/>
    </linearGradient>
    <radialGradient id="bg" cx="50%" cy="50%" r="75%">
      <stop offset="0" stop-color="#050b2a"/>
      <stop offset="1" stop-color="#01030f"/>
    </radialGradient>
    <filter id="glow" x="-20%" y="-20%" width="140%" height="140%">
      <feGaussianBlur stdDeviation="7" result="b"/>
      <feMerge><feMergeNode in="b"/><feMergeNode in="SourceGraphic"/></feMerge>
    </filter>
  </defs>

  <!-- Contenedor con bordes redondeados -->
  <rect width="512" height="512" rx="112" ry="112" fill="url(#bg)"/>

  <g transform="translate(256 258) scale(0.58) translate(-630 -602)" filter="url(#glow)">
    <!-- Anillo segmentado -->
    <g fill="none" stroke-width="6" stroke-linecap="butt">
      <path d="M640 222 A383 383 0 0 1 925 370" stroke="#2fe0ff"/>
      <path d="M980 487 A383 383 0 0 1 990 730" stroke="#1a6bff"/>
      <path d="M925 855 A383 383 0 0 1 775 960" stroke="#1a6bff"/>
      <path d="M725 973 A383 383 0 0 1 428 922" stroke="#2fe0ff"/>
      <path d="M390 893 A383 383 0 0 1 257 630" stroke="#1a6bff"/>
      <path d="M285 447 A383 383 0 0 1 472 260" stroke="#1a55e0"/>
    </g>

    <!-- Letra J -->
    <polygon fill="url(#g2)" points="548,405 618,335 618,745 548,817 397,817 335,755 422,667 422,748 515,748 548,712"/>
    <polygon fill="#1257ff" opacity="0.55" points="422,748 515,748 548,712 548,817 470,817"/>

    <!-- Trazos de circuito de la J -->
    <g fill="none" stroke="#35e6ff" stroke-width="7" stroke-linejoin="miter">
      <path d="M503 372 L552 325"/>
      <path d="M515 405 L580 342 V300"/>
      <path d="M510 372 V718 L494 730"/>
      <path d="M338 490 H395 L503 612"/>
      <path d="M301 565 H403 L503 670"/>
    </g>

    <!-- Letra G -->
    <polygon fill="url(#g1)" points="700,423 882,423 822,484 745,484 638,592 638,700 700,748 838,748 778,808 710,808 638,730 638,500"/>
    <polygon fill="#1257ff" opacity="0.6" points="700,748 838,748 778,808 710,808"/>
    <polygon fill="url(#g2)" points="795,578 945,578 945,748 848,850 785,850 870,758 870,642 730,642"/>

    <!-- Trazos de circuito de la G -->
    <g fill="none" stroke="#35e6ff" stroke-width="7" stroke-linejoin="miter">
      <path d="M690 585 L758 517 H838 L912 445"/>
      <path d="M690 585 V700 L720 745 H838"/>
      <path d="M648 570 V690"/>
      <path d="M676 886 L695 862 H846"/>
      <path d="M735 876 H835"/>
    </g>

    <!-- Nodos -->
    <g fill="#02061a" stroke="#6ff0ff" stroke-width="7">
      <circle cx="577" cy="272" r="22"/>
      <circle cx="320" cy="490" r="19"/>
      <circle cx="283" cy="565" r="19"/>
      <circle cx="930" cy="435" r="19"/>
      <circle cx="658" cy="903" r="21"/>
    </g>
  </g>
</svg>
